<?xml version="1.0" encoding="UTF-8" standalone="no"?><!DOCTYPE svg PUBLIC "-//W3C//DTD SVG 1.1//EN" "http://www.w3.org/Graphics/SVG/1.1/DTD/svg11.dtd"><svg width="100%" height="100%" viewBox="0 0 1800 2103" version="1.1" xmlns="http://www.w3.org/2000/svg" xmlns:xlink="http://www.w3.org/1999/xlink" xml:space="preserve" style="fill-rule:evenodd;clip-rule:evenodd;stroke-linejoin:round;stroke-miterlimit:1.41421;"><g id="Layer-1"><path d="M1747.76,515.905c98.709,-157.729 50.865,-365.613 -106.865,-464.323c-157.729,-98.709 -365.614,-50.863 -464.323,106.866l260.175,162.821l-54.349,86.845c-137.152,-96.117 -304.037,-152.7 -484.23,-152.7c-179.282,0 -345.402,55.998 -482.16,151.229l-53.429,-85.374l260.175,-162.821c-98.709,-157.729 -306.594,-205.575 -464.323,-106.866c-157.729,98.71 -205.574,306.594 -106.865,464.323l260.175,-162.821l56.107,89.656c-191.837,154.894 -314.64,391.871 -314.64,657.634c0,314.038 171.452,587.856 425.727,733.506l-93.693,268.588l166.852,0l66.62,-204.657c87.498,30.663 181.485,47.525 279.454,47.525c99.693,0 195.294,-17.393 284.095,-49.096l67.132,206.228l160.591,0l-88.209,-270.979l-0.5,0.163c252.14,-146.205 421.852,-418.837 421.852,-731.278c0,-264.848 -121.936,-501.135 -312.637,-656.059l57.094,-91.231l260.174,162.821Z" style="fill:#212121;fill-rule:nonzero;"/><path d="M1665.73,1100.38c0,423.085 -342.979,766.064 -766.064,766.064c-423.085,0 -766.064,-342.979 -766.064,-766.064c0,-423.085 342.979,-766.064 766.064,-766.064c423.085,0 766.064,342.979 766.064,766.064" style="fill:#f5f5f5;fill-rule:nonzero;"/><rect x="865.306" y="399.21" width="68.717" height="179.427" style="fill:#808285;fill-rule:nonzero;"/><rect x="865.306" y="1607.48" width="68.717" height="179.427" style="fill:#808285;fill-rule:nonzero;"/><rect x="1414.09" y="1058.7" width="179.427" height="68.717" style="fill:#808285;fill-rule:nonzero;"/><rect x="205.817" y="1058.7" width="179.427" height="68.717" style="fill:#808285;fill-rule:nonzero;"/><path id="minutehand" d="M918.04,498.817c0,-2.624 -1.042,-5.14 -2.898,-6.996c-1.855,-1.855 -4.372,-2.898 -6.995,-2.898c-5.243,0 -11.665,0 -16.911,0c-5.476,0 -9.916,4.44 -9.916,9.917c0,78.326 0,594.217 0,594.217l36.72,0c0,0 0,-515.99 0,-594.24Z" style="fill:#a3a4a6;"/><path id="hourhand" d="M926.031,768.817c0.001,-2.624 -1.042,-5.14 -2.897,-6.996c-1.856,-1.855 -4.372,-2.898 -6.996,-2.898c-9.407,0 -23.479,0 -32.893,0c-5.477,0.001 -9.917,4.44 -9.917,9.917c0,55.409 0,324.217 0,324.217l52.703,0c0,0 0,-268.882 0,-324.24Z" style="fill:#a3a4a6;"/><circle id="center" cx="899.665" cy="1093.06" r="80" style="fill:#808285;"/></g></svg>