<?xml version="1.0" encoding="UTF-8" standalone="no"?><!DOCTYPE svg PUBLIC "-//W3C//DTD SVG 1.1//EN" "http://www.w3.org/Graphics/SVG/1.1/DTD/svg11.dtd"><svg width="100%" height="100%" viewBox="0 0 126 52" version="1.1" xmlns="http://www.w3.org/2000/svg" xmlns:xlink="http://www.w3.org/1999/xlink" xml:space="preserve" style="fill-rule:evenodd;clip-rule:evenodd;stroke-linejoin:round;stroke-miterlimit:1.41421;"><g><g><path d="M60.432,29.064l0,5.052l-0.443,0l0,-11.96l3.737,0c1.222,0 2.17,0.308 2.847,0.924c0.676,0.616 1.014,1.472 1.014,2.567c0,1.084 -0.33,1.922 -0.99,2.514c-0.66,0.591 -1.597,0.892 -2.813,0.903l-3.352,0Zm0,-0.443l3.294,0c1.079,0 1.918,-0.26 2.518,-0.781c0.6,-0.52 0.9,-1.246 0.9,-2.177c0,-0.963 -0.3,-1.715 -0.9,-2.254c-0.6,-0.54 -1.439,-0.81 -2.518,-0.81l-3.294,0l0,6.022Z" style="fill:#fff;fill-rule:nonzero;"/><path d="M72.011,33.426l0.057,-0.164l3.073,-8.034l0.493,0l-3.976,10.433l-0.197,0.492c-0.428,1.035 -1.134,1.553 -2.12,1.553c-0.317,0 -0.537,-0.03 -0.657,-0.09l-0.008,-0.419c0.175,0.049 0.375,0.074 0.599,0.074c0.466,0 0.852,-0.136 1.159,-0.407c0.306,-0.271 0.572,-0.713 0.797,-1.327l0.542,-1.47l-3.541,-8.839l0.485,0l3.294,8.198Z" style="fill:#fff;fill-rule:nonzero;"/><path d="M82.337,30.543l-5.857,0l-1.331,3.573l-0.485,0l4.477,-11.96l0.543,0l4.476,11.96l-0.484,0l-1.339,-3.573Zm-5.693,-0.444l5.529,0l-2.761,-7.409l-2.768,7.409Z" style="fill:#fff;fill-rule:nonzero;"/><rect x="85.111" y="21.499" width="0.444" height="12.618" style="fill:#fff;fill-rule:nonzero;"/><path d="M86.718,29.582c0,-1.419 0.298,-2.526 0.895,-3.323c0.597,-0.797 1.416,-1.195 2.456,-1.195c0.663,0 1.252,0.152 1.766,0.456c0.515,0.304 0.929,0.749 1.241,1.335l0,-1.627l0.451,0l0,8.732c0,1.172 -0.301,2.088 -0.903,2.748c-0.603,0.66 -1.421,0.99 -2.456,0.99c-0.597,0 -1.143,-0.129 -1.639,-0.386c-0.496,-0.258 -0.919,-0.627 -1.269,-1.109l0.312,-0.296c0.345,0.438 0.723,0.774 1.134,1.006c0.41,0.233 0.892,0.349 1.445,0.349c0.915,0 1.627,-0.278 2.136,-0.833c0.509,-0.556 0.772,-1.341 0.789,-2.354l0,-1.363c-0.307,0.503 -0.722,0.891 -1.245,1.162c-0.523,0.271 -1.116,0.406 -1.778,0.406c-1.03,0 -1.843,-0.407 -2.44,-1.223c-0.597,-0.816 -0.895,-1.936 -0.895,-3.36l0,-0.115Zm0.451,0.172c0,1.271 0.252,2.269 0.756,2.994c0.504,0.726 1.21,1.089 2.12,1.089c0.75,0 1.388,-0.174 1.914,-0.522c0.525,-0.347 0.898,-0.836 1.117,-1.466l0,-4.033c-0.482,-1.539 -1.487,-2.309 -3.015,-2.309c-0.915,0 -1.625,0.359 -2.132,1.076c-0.506,0.718 -0.76,1.775 -0.76,3.171Z" style="fill:#fff;fill-rule:nonzero;"/><path d="M94.596,29.428c0,-0.849 0.163,-1.612 0.489,-2.288c0.326,-0.677 0.786,-1.204 1.38,-1.582c0.594,-0.377 1.266,-0.566 2.016,-0.566c0.745,0 1.413,0.183 2.005,0.55c0.591,0.367 1.053,0.887 1.384,1.561c0.331,0.673 0.5,1.432 0.505,2.275l0,0.395c0,0.854 -0.161,1.618 -0.484,2.291c-0.324,0.674 -0.782,1.2 -1.376,1.578c-0.595,0.377 -1.267,0.566 -2.017,0.566c-0.75,0 -1.423,-0.186 -2.017,-0.558c-0.594,-0.373 -1.055,-0.894 -1.384,-1.565c-0.329,-0.671 -0.496,-1.425 -0.501,-2.263l0,-0.394Zm0.444,0.345c0,0.739 0.146,1.417 0.439,2.033c0.293,0.616 0.701,1.096 1.224,1.441c0.523,0.345 1.121,0.518 1.795,0.518c1.013,0 1.839,-0.381 2.477,-1.142c0.638,-0.761 0.957,-1.741 0.957,-2.941l0,-0.254c0,-0.729 -0.148,-1.402 -0.444,-2.021c-0.296,-0.619 -0.705,-1.102 -1.228,-1.45c-0.523,-0.348 -1.116,-0.522 -1.779,-0.522c-1.013,0 -1.84,0.386 -2.48,1.159c-0.641,0.772 -0.961,1.744 -0.961,2.916l0,0.263Z" style="fill:#fff;fill-rule:nonzero;"/><path d="M109.361,32.011c0,-1.078 -0.92,-1.812 -2.76,-2.201c-1.107,-0.236 -1.876,-0.538 -2.309,-0.908c-0.432,-0.369 -0.649,-0.877 -0.649,-1.524c0,-0.651 0.276,-1.188 0.826,-1.61c0.55,-0.421 1.266,-0.632 2.148,-0.632c0.958,0 1.728,0.228 2.308,0.686c0.581,0.457 0.871,1.074 0.871,1.852l-0.452,0c0,-0.597 -0.252,-1.095 -0.755,-1.495c-0.504,-0.4 -1.161,-0.6 -1.972,-0.6c-0.778,0 -1.394,0.17 -1.848,0.51c-0.455,0.339 -0.682,0.764 -0.682,1.273c0,0.4 0.085,0.713 0.255,0.941c0.169,0.227 0.446,0.432 0.829,0.616c0.384,0.183 0.942,0.36 1.676,0.529c0.734,0.17 1.314,0.37 1.742,0.6c0.427,0.23 0.736,0.503 0.928,0.817c0.192,0.315 0.287,0.7 0.287,1.155c0,0.701 -0.287,1.265 -0.862,1.692c-0.575,0.427 -1.328,0.641 -2.259,0.641c-0.997,0 -1.801,-0.226 -2.411,-0.678c-0.611,-0.452 -0.916,-1.034 -0.916,-1.746l0.443,0c0.044,0.625 0.319,1.111 0.826,1.458c0.507,0.348 1.193,0.522 2.058,0.522c0.794,0 1.439,-0.185 1.934,-0.555c0.496,-0.369 0.744,-0.817 0.744,-1.343Z" style="fill:#fff;fill-rule:nonzero;"/><path d="M111.718,34.166l-0.444,0l0,-8.888l0.444,0l0,8.888Zm-0.674,-11.664c0,-0.126 0.044,-0.234 0.132,-0.325c0.087,-0.09 0.194,-0.135 0.32,-0.135c0.126,0 0.234,0.045 0.325,0.135c0.09,0.091 0.135,0.199 0.135,0.325c0,0.126 -0.045,0.232 -0.135,0.32c-0.091,0.088 -0.199,0.132 -0.325,0.132c-0.126,0 -0.233,-0.044 -0.32,-0.132c-0.088,-0.088 -0.132,-0.194 -0.132,-0.32Z" style="fill:#fff;fill-rule:nonzero;"/><path d="M119.426,34.182l-0.443,0l0,-5.972c-0.006,-0.893 -0.202,-1.557 -0.588,-1.992c-0.386,-0.436 -1,-0.653 -1.844,-0.653c-0.975,0 -1.771,0.429 -2.39,1.289c-0.367,0.515 -0.611,1.085 -0.731,1.709l0,5.619l-0.452,0l0,-8.889l0.452,0l0,2.103c0.301,-0.722 0.731,-1.281 1.289,-1.675c0.559,-0.395 1.178,-0.592 1.857,-0.592c0.745,0 1.354,0.164 1.828,0.493c0.473,0.329 0.784,0.865 0.932,1.61c0.263,-0.641 0.69,-1.151 1.281,-1.532c0.592,-0.381 1.254,-0.571 1.988,-0.571c0.959,0 1.672,0.271 2.14,0.813c0.468,0.543 0.705,1.356 0.711,2.44l0,5.8l-0.444,0l0,-5.767c0,-0.975 -0.196,-1.696 -0.587,-2.165c-0.392,-0.468 -1.006,-0.696 -1.844,-0.685c-1.079,0.016 -1.934,0.446 -2.563,1.289c-0.362,0.488 -0.559,0.959 -0.592,1.413l0,5.915Z" style="fill:#fff;fill-rule:nonzero;"/></g><g><path d="M25.988,26.597l-7.568,-0.959l0,17.946c1.877,4.974 5.172,7.949 10.676,7.807l0,-20.034l-3.108,-4.76Z" style="fill:url(#_Linear1);"/><path d="M33.875,9.722c8.533,0 15.461,6.934 15.461,15.475c0,8.541 -6.928,15.475 -15.461,15.475c-8.534,0 -15.462,-6.934 -15.462,-15.475c0,-8.541 6.928,-15.475 15.462,-15.475Zm0.635,7.491c4.277,0 7.75,3.555 7.75,7.933c0,4.378 -3.473,7.932 -7.75,7.932c-4.278,0 -7.751,-3.554 -7.751,-7.932c0,-4.378 3.473,-7.933 7.751,-7.933Z" style="fill:url(#_Linear2);"/></g><g><path d="M27.099,2.269c-5.295,0.597 -9.128,3.531 -11.675,8.519c1.22,1.21 2.333,2.622 3.234,4.433c2.558,-5.1 6.429,-7.975 11.675,-8.519l-3.234,-4.433Z" style="fill:#fff;"/><path d="M21.376,11.061c-1.009,-3.342 -5.935,-6.926 -12.054,-7.995l-3.333,5.037c7.256,0.473 10.68,3.742 12.338,7.774c0.982,-1.922 1.79,-3.394 3.049,-4.816Z" style="fill:#fff;"/><path d="M9.195,2.973c-4.717,2.277 -7.804,7.58 -9.008,11.508c1.025,0.4 3.577,2.504 4.405,3.055c2.814,-6.395 4.695,-8.547 10.793,-11.895c-1.803,-1 -4.888,-1.404 -6.19,-2.668Z" style="fill:#fff;"/><path d="M34.906,2.006l-5.78,6.959l-3.055,-8.903l8.835,1.944Z" style="fill:#fff;"/></g></g><defs><linearGradient id="_Linear1" x1="0" y1="0" x2="1" y2="0" gradientUnits="userSpaceOnUse" gradientTransform="matrix(20.9747,41.4642,-41.4642,20.9747,20.2178,9.49495)"><stop offset="0" style="stop-color:#fff;stop-opacity:1"/><stop offset="1" style="stop-color:#00e676;stop-opacity:1"/></linearGradient><linearGradient id="_Linear2" x1="0" y1="0" x2="1" y2="0" gradientUnits="userSpaceOnUse" gradientTransform="matrix(20.9747,41.4642,-41.4642,20.9747,20.2178,9.49495)"><stop offset="0" style="stop-color:#fff;stop-opacity:1"/><stop offset="1" style="stop-color:#00e676;stop-opacity:1"/></linearGradient></defs></svg>