<?xml version="1.0" encoding="UTF-8" standalone="no"?><!DOCTYPE svg PUBLIC "-//W3C//DTD SVG 1.1//EN" "http://www.w3.org/Graphics/SVG/1.1/DTD/svg11.dtd"><svg width="100%" height="100%" viewBox="0 0 3180 198" version="1.1" xmlns="http://www.w3.org/2000/svg" xmlns:xlink="http://www.w3.org/1999/xlink" xml:space="preserve" style="fill-rule:evenodd;clip-rule:evenodd;stroke-linejoin:round;stroke-miterlimit:1.41421;"><g id="Volume-bars"><g id="Green"><rect x="10.434" y="71.55" width="18.881" height="127.2" style="fill:#02ff80;"/><rect x="39.253" y="54.656" width="18.881" height="144.094" style="fill:#02ff80;"/><rect x="125.709" y="71.55" width="18.881" height="127.2" style="fill:#02ff80;"/><rect x="183.347" y="89.437" width="18.881" height="109.313" style="fill:#02ff80;"/><rect x="212.166" y="20.869" width="18.881" height="177.881" style="fill:#02ff80;"/><rect x="240.984" y="61.612" width="18.881" height="137.138" style="fill:#02ff80;"/><rect x="356.259" y="89.437" width="18.881" height="109.313" style="fill:#02ff80;"/><rect x="385.078" y="109.809" width="18.881" height="88.941" style="fill:#02ff80;"/><rect x="442.716" y="71.55" width="18.881" height="127.2" style="fill:#02ff80;"/><rect x="471.534" y="61.613" width="18.881" height="137.137" style="fill:#02ff80;"/><rect x="500.353" y="51.675" width="18.881" height="147.075" style="fill:#02ff80;"/><rect x="557.991" y="42.731" width="18.881" height="156.019" style="fill:#02ff80;"/><rect x="673.266" y="130.181" width="18.881" height="68.569" style="fill:#02ff80;"/><rect x="702.084" y="99.375" width="18.881" height="99.375" style="fill:#02ff80;"/><rect x="730.903" y="120.741" width="18.881" height="78.009" style="fill:#02ff80;"/><rect x="788.541" y="42.731" width="18.881" height="156.019" style="fill:#02ff80;"/><rect x="817.359" y="30.806" width="18.881" height="167.944" style="fill:#02ff80;"/><rect x="874.997" y="80.494" width="18.881" height="118.256" style="fill:#02ff80;"/><rect x="961.453" y="71.55" width="18.881" height="127.2" style="fill:#02ff80;"/><rect x="990.272" y="99.375" width="18.881" height="99.375" style="fill:#02ff80;"/><rect x="1019.09" y="56.644" width="18.881" height="142.106" style="fill:#02ff80;"/><rect x="1105.55" y="38.756" width="18.881" height="159.994" style="fill:#02ff80;"/><rect x="1163.18" y="76.519" width="18.881" height="122.231" style="fill:#02ff80;"/><rect x="1192" y="56.644" width="18.881" height="142.106" style="fill:#02ff80;"/><rect x="1220.82" y="106.331" width="18.881" height="92.419" style="fill:#02ff80;"/><rect x="1278.46" y="45.712" width="18.881" height="153.038" style="fill:#02ff80;"/><rect x="1336.1" y="64.594" width="18.881" height="134.156" style="fill:#02ff80;"/><rect x="1364.92" y="71.55" width="18.881" height="127.2" style="fill:#02ff80;"/><rect x="1451.37" y="80.494" width="18.881" height="118.256" style="fill:#02ff80;"/><rect x="1480.19" y="71.55" width="18.881" height="127.2" style="fill:#02ff80;"/><rect x="1509.01" y="89.437" width="18.881" height="109.313" style="fill:#02ff80;"/><rect x="1566.65" y="45.713" width="18.881" height="153.038" style="fill:#02ff80;"/><rect x="1624.28" y="33.787" width="18.881" height="164.963" style="fill:#02ff80;"/><rect x="1653.1" y="60.619" width="18.881" height="138.131" style="fill:#02ff80;"/><rect x="1711.63" y="71.55" width="18.881" height="127.2" style="fill:#02ff80;"/><rect x="1740.45" y="54.656" width="18.881" height="144.094" style="fill:#02ff80;"/><rect x="1826.91" y="71.55" width="18.881" height="127.2" style="fill:#02ff80;"/><rect x="1884.54" y="89.437" width="18.881" height="109.313" style="fill:#02ff80;"/><rect x="1913.36" y="20.869" width="18.881" height="177.881" style="fill:#02ff80;"/><rect x="1942.18" y="61.612" width="18.881" height="137.138" style="fill:#02ff80;"/><rect x="2057.46" y="89.437" width="18.881" height="109.313" style="fill:#02ff80;"/><rect x="2086.28" y="109.809" width="18.881" height="88.941" style="fill:#02ff80;"/><rect x="2143.91" y="71.55" width="18.881" height="127.2" style="fill:#02ff80;"/><rect x="2172.73" y="61.613" width="18.881" height="137.137" style="fill:#02ff80;"/><rect x="2201.55" y="51.675" width="18.881" height="147.075" style="fill:#02ff80;"/><rect x="2259.19" y="42.731" width="18.881" height="156.019" style="fill:#02ff80;"/><rect x="2374.46" y="130.181" width="18.881" height="68.569" style="fill:#02ff80;"/><rect x="2403.28" y="99.375" width="18.881" height="99.375" style="fill:#02ff80;"/><rect x="2432.1" y="120.741" width="18.881" height="78.009" style="fill:#02ff80;"/><rect x="2489.74" y="42.731" width="18.881" height="156.019" style="fill:#02ff80;"/><rect x="2518.56" y="30.806" width="18.881" height="167.944" style="fill:#02ff80;"/><rect x="2576.19" y="80.494" width="18.881" height="118.256" style="fill:#02ff80;"/><rect x="2662.65" y="71.55" width="18.881" height="127.2" style="fill:#02ff80;"/><rect x="2691.47" y="99.375" width="18.881" height="99.375" style="fill:#02ff80;"/><rect x="2720.29" y="56.644" width="18.881" height="142.106" style="fill:#02ff80;"/><rect x="2806.74" y="38.756" width="18.881" height="159.994" style="fill:#02ff80;"/><rect x="2864.38" y="76.519" width="18.881" height="122.231" style="fill:#02ff80;"/><rect x="2893.2" y="56.644" width="18.881" height="142.106" style="fill:#02ff80;"/><rect x="2922.02" y="106.331" width="18.881" height="92.419" style="fill:#02ff80;"/><rect x="2979.66" y="45.712" width="18.881" height="153.038" style="fill:#02ff80;"/><rect x="3037.29" y="64.594" width="18.881" height="134.156" style="fill:#02ff80;"/><rect x="3066.11" y="71.55" width="18.881" height="127.2" style="fill:#02ff80;"/><rect x="3152.57" y="80.494" width="18.881" height="118.256" style="fill:#02ff80;"/></g><g id="Red"><rect x="68.072" y="43.725" width="18.881" height="155.025" style="fill:#ff5252;"/><rect x="96.891" y="89.437" width="18.881" height="109.313" style="fill:#ff5252;"/><rect x="154.528" y="108.319" width="18.881" height="90.431" style="fill:#ff5252;"/><rect x="269.803" y="89.437" width="18.881" height="109.313" style="fill:#ff5252;"/><rect x="298.622" y="71.55" width="18.881" height="127.2" style="fill:#ff5252;"/><rect x="327.441" y="61.613" width="18.881" height="137.137" style="fill:#ff5252;"/><rect x="413.897" y="99.375" width="18.881" height="99.375" style="fill:#ff5252;"/><rect x="529.172" y="61.613" width="18.881" height="137.138" style="fill:#ff5252;"/><rect x="586.809" y="27.825" width="18.881" height="170.925" style="fill:#ff5252;"/><rect x="615.628" y="71.55" width="18.881" height="127.2" style="fill:#ff5252;"/><rect x="644.447" y="113.287" width="18.881" height="85.462" style="fill:#ff5252;"/><rect x="759.722" y="113.287" width="18.881" height="85.462" style="fill:#ff5252;"/><rect x="846.178" y="56.644" width="18.881" height="142.106" style="fill:#ff5252;"/><rect x="903.816" y="89.437" width="18.881" height="109.313" style="fill:#ff5252;"/><rect x="932.634" y="71.55" width="18.881" height="127.2" style="fill:#ff5252;"/><rect x="1047.91" y="48.694" width="18.881" height="150.056" style="fill:#ff5252;"/><rect x="1076.73" y="56.644" width="18.881" height="142.106" style="fill:#ff5252;"/><rect x="1134.37" y="56.644" width="18.881" height="142.106" style="fill:#ff5252;"/><rect x="1249.64" y="71.55" width="18.881" height="127.2" style="fill:#ff5252;"/><rect x="1307.28" y="20.869" width="18.881" height="177.881" style="fill:#ff5252;"/><rect x="1393.73" y="45.712" width="18.881" height="153.038" style="fill:#ff5252;"/><rect x="1422.55" y="99.375" width="18.881" height="99.375" style="fill:#ff5252;"/><rect x="1537.83" y="80.494" width="18.881" height="118.256" style="fill:#ff5252;"/><rect x="1595.47" y="60.619" width="18.881" height="138.131" style="fill:#ff5252;"/><rect x="1681.92" y="71.55" width="18.881" height="127.2" style="fill:#ff5252;"/><rect x="1769.27" y="43.725" width="18.881" height="155.025" style="fill:#ff5252;"/><rect x="1798.09" y="89.437" width="18.881" height="109.313" style="fill:#ff5252;"/><rect x="1855.73" y="108.319" width="18.881" height="90.431" style="fill:#ff5252;"/><rect x="1971" y="89.437" width="18.881" height="109.313" style="fill:#ff5252;"/><rect x="1999.82" y="71.55" width="18.881" height="127.2" style="fill:#ff5252;"/><rect x="2028.64" y="61.613" width="18.881" height="137.137" style="fill:#ff5252;"/><rect x="2115.09" y="99.375" width="18.881" height="99.375" style="fill:#ff5252;"/><rect x="2230.37" y="61.613" width="18.881" height="137.138" style="fill:#ff5252;"/><rect x="2288.01" y="27.825" width="18.881" height="170.925" style="fill:#ff5252;"/><rect x="2316.83" y="71.55" width="18.881" height="127.2" style="fill:#ff5252;"/><rect x="2345.64" y="113.287" width="18.881" height="85.462" style="fill:#ff5252;"/><rect x="2460.92" y="113.287" width="18.881" height="85.462" style="fill:#ff5252;"/><rect x="2547.38" y="56.644" width="18.881" height="142.106" style="fill:#ff5252;"/><rect x="2605.01" y="89.437" width="18.881" height="109.313" style="fill:#ff5252;"/><rect x="2633.83" y="71.55" width="18.881" height="127.2" style="fill:#ff5252;"/><rect x="2749.11" y="48.694" width="18.881" height="150.056" style="fill:#ff5252;"/><rect x="2777.93" y="56.644" width="18.881" height="142.106" style="fill:#ff5252;"/><rect x="2835.56" y="56.644" width="18.881" height="142.106" style="fill:#ff5252;"/><rect x="2950.84" y="71.55" width="18.881" height="127.2" style="fill:#ff5252;"/><rect x="3008.47" y="20.869" width="18.881" height="177.881" style="fill:#ff5252;"/><rect x="3094.93" y="45.712" width="18.881" height="153.038" style="fill:#ff5252;"/><rect x="3123.75" y="99.375" width="18.881" height="99.375" style="fill:#ff5252;"/></g></g></svg>